<?xml version="1.0" encoding="UTF-8"?>
<svg id="Layer_1" data-name="Layer 1" xmlns="http://www.w3.org/2000/svg" width="400" height="195" viewBox="0 0 400 195">
  <path d="m106.2,88.88h13.87l25.9,66.39h-12.33l-5.44-14.82h-30.25l-5.53,14.82h-12.42l26.2-66.39Zm19.02,42.56l-11.93-32.44h-.18l-12.33,32.44h24.46-.02Z" style="fill: #37193c;"/>
  <path d="m156.35,154.9c-2.64-1.45-4.67-3.59-6.12-6.38s-2.18-6.1-2.18-9.89v-31.69h10.75v29.7c0,3.55.99,6.39,2.95,8.52,1.98,2.13,4.63,3.19,8.01,3.19,2.69,0,5.17-.62,7.4-1.85,2.23-1.25,4.01-2.95,5.33-5.15,1.32-2.18,1.98-4.65,1.98-7.36v-27.04h10.66v48.34h-9.38l-1.39-6.85h-.09c-2.18,2.78-4.78,4.93-7.79,6.43-3.04,1.5-6.56,2.23-10.57,2.23-3.77,0-6.96-.71-9.58-2.18l.02-.02Z" style="fill: #37193c;"/>
  <path d="m198.25,106.94h11.25l14.6,39.61h.18l14.71-39.61h11.27l-19.35,48.34h-13.52s-19.14-48.34-19.14-48.34Z" style="fill: #37193c;"/>
  <path d="m266.18,106.94h-10.75v48.34h10.75s0-48.34,0-48.34Z" style="fill: #37193c;"/>
  <path d="m275.45,85.03h10.66v42.06h.11l18.76-20.19h13.34l-18.56,19.14,20.24,29.22h-12.55l-14.71-22.17-6.61,6.76v15.42h-10.64v-70.25h-.04Z" style="fill: #37193c;"/>
  <path d="m158.83,94.85c0-25.68,21.67-46.59,48.29-46.59,12.57,0,24.03,4.67,32.64,12.29-3.41-.99-7-1.52-10.72-1.52-20.48,0-37.13,16.07-37.13,35.83h10.77c0-14.03,11.83-25.45,26.38-25.45s25.63,10.72,26.34,24.14c0,.44.04.86.04,1.32h10.77c0-.62,0-1.23-.05-1.85-1.03-30.57-27.08-55.14-59.01-55.14s-59.06,25.56-59.06,56.97h10.77l-.04-.02Z" style="fill: #8e77fb;"/>
</svg>
